<svg xmlns="http://www.w3.org/2000/svg" width="100" height="100" fill="none" viewBox="0 0 100 100">
    <style>
        @keyframes grow {
            0% {
                opacity: 0
            }

            10% {
                opacity: 1
            }

            70% {
                stroke-dasharray: 1200px 0
            }
        }

        @media (prefers-reduced-motion) {
            .path1 {
                animation: none !important;
                stroke-dasharray: unset !important
            }
        }

        .path1 {
            stroke-dashoffset: 1px;
            stroke-dasharray: 0 1200px;
            animation: grow 12s ease-in-out forwards infinite;
            transform-origin: center;
            animation-delay: 0s
        }

        .stop1 {
            stop-color: rgb(59 130 246 / var(--un-from-opacity, 1));
        }

        .stop2 {
            stop-color: rgb(34 211 238 / var(--un-to-opacity, 1));
        }
    </style>
    <defs>
        <radialGradient id="Gradient1">
            <stop class="stop1" offset="0%" />
            <stop class="stop2" offset="100%" />
        </radialGradient>
    </defs>
    <g>
        <path stroke-width="2.5" stroke-linecap="round" stroke="url(#Gradient1)" class="path1"
            d="M31.421 59.252 C34.939 51.026 35.828 48.966 36.108 48.471 C36.388 47.977 37.075 46.987 37.634 46.271 C38.449 45.229 39.351 44.462 42.184 42.408 C44.127 40.999 46.434 39.281 47.311 38.590 C48.187 37.899 49.835 36.562 50.973 35.618 C52.110 34.675 54.532 32.481 56.355 30.743 C58.178 29.006 60.351 26.819 61.184 25.884 C62.017 24.949 63.192 23.497 63.795 22.658 C64.399 21.819 65.310 20.380 65.820 19.460 C66.330 18.539 67.014 17.071 67.338 16.196 C67.751 15.084 67.928 14.254 67.928 13.438 C67.928 12.513 67.815 12.077 67.380 11.331 C67.063 10.786 66.489 10.167 66.014 9.858 C63.994 9.212 63.287 9.285 62.849 9.415    C62.410 9.545 61.738 9.798 61.355 9.976 C60.971 10.155 59.910 10.826 58.996 11.468 C58.061 12.124 56.532 13.482 55.499 14.574 C54.489 15.641 52.807 17.634 51.761 19.003 C50.716 20.373 49.163 22.504 48.312 23.741 C47.460 24.978 46.091 27.082 45.270 28.417 C44.449 29.753 42.845 32.526 41.707 34.580 C40.568 36.635 38.956 39.670 38.124 41.325 C37.292 42.980 35.368 46.924 33.849 50.090 C32.329 53.255 30.788 56.371 30.423 57.012 C29.979 57.795 29.494 58.348 28.953 58.692 C23.970 60.041 23.892 60.202 23.943 60.757  L24.004 61.421 L25.896 61.421 C26.937 61.421 27.901 61.486 28.038 61.566 C28.175 61.646 28.287 61.899 28.287 62.127 C28.287 62.355 28.110 62.937 27.894 63.420 C27.677 63.903 26.788 66.124 25.917 68.356 C25.046 70.588 23.872 73.744 23.308 75.371 C22.744 76.997 21.887 79.715 21.405 81.412 C20.923 83.108 20.168 86.098 19.728 88.055 C19.011 91.238 18.957 91.655 19.214 92.009 C19.372 92.226 19.767 92.488 20.091 92.590 C20.553 92.735 20.827 92.711 21.347 92.476 C21.763 92.289 22.610 91.457 23.606 90.257 C24.482 89.202 25.779 87.503 26.488 86.480 C27.197 85.458 28.414 83.488 29.194 82.102 C29.973 80.716 30.992 78.693 31.457 77.606 C31.922 76.519 32.642 74.577 33.057 73.291 C33.472 72.005 33.914 70.306 34.039 69.514 C34.200 68.502 34.209 67.660 34.070 66.676 C33.907 65.521 33.680 64.943 32.773 63.382 C32.152 62.314 31.673 61.255 31.673 60.952 C21.673 60.656 31.808 60.179 31.972 59.892 C33.274 58.689 34.955 57.865 36.653 57.101 C38.352 56.336 41.220 55.002 43.028 54.136 C44.836 53.270 48.018 51.832 50.100 50.941 C52.181 50.049 54.736 49.077 55.777 48.780 C56.818 48.484 57.939 48.190 58.268 48.127  L58.866 48.012 L59.314 49.422 C59.915 45.923 59.686 45.861 59.427 45.935 C59.206 45.998 58.933 46.231 58.821 46.453 C60.716 54.496 61.067 54.652 61.293 54.843 C61.520 55.033 62.249 55.825 62.915 56.601 C63.580 57.378 64.375 58.181 64.682 58.385 C64.988 58.590 65.547 58.901 65.923 59.077 C66.442 59.319 66.874 59.371 67.713 59.293 C68.427 59.226 69.395 58.932 70.452 58.459 C71.351 58.057 72.831 57.231 73.742 56.625 C74.653 56.019 76.922 54.110 59.560 50.196 C59.560 50.196 59.761 51.243 59.761 51.746 C59.761 52.587 59.677 52.752 58.738 53.754 C58.175 54.355 57.508 54.969 57.254 55.119 C57.000 55.269 55.668 56.603 54.293 58.083 C52.918 59.563 51.793 60.856 51.793 60.956 C51.793 61.056 51.965 61.222 52.175 61.323 C52.506 61.483 52.854 61.235 54.743 59.486 C55.945 58.374 57.435 56.925 58.054 56.266 C68.068 47.826 68.984 47.031 69.100 46.810 C69.217 46.588 69.260 46.285 69.196 46.135 C69.133 45.986 68.973 45.863 68.841 45.863 C68.710 45.863 68.114 46.239 67.518 46.697 C66.922 47.156 65.717 48.117 64.841 48.832 C63.964 49.547 62.943 50.272 62.572 50.443 C62.051 50.683 61.792 50.711 61.437 50.565 C61.149 50.447 60.900 50.119 60.773 49.693 C59.915 45.923 59.686 45.861 59.427 45.935 C59.206 45.998 58.933 46.231 58.821 46.453" />
    </g>
</svg>